<svg width="16" height="14" viewBox="0 0 16 14" fill="none" xmlns="http://www.w3.org/2000/svg">
<path fill-rule="evenodd" clip-rule="evenodd" d="M14.1146 2.1306C14.7924 1.70961 15.3129 1.04301 15.558 0.248761C14.9237 0.638518 14.2212 0.921603 13.4735 1.07418C12.8747 0.413105 12.0216 0 11.0774 0C9.26454 0 7.79475 1.52295 7.79475 3.40138C7.79475 3.66797 7.82384 3.92759 7.87979 4.17653C5.15162 4.03469 2.73286 2.68051 1.11384 0.622629C0.831281 1.125 0.669403 1.7093 0.669403 2.33266C0.669403 3.51273 1.24897 4.55386 2.12976 5.16381C1.59163 5.14617 1.08551 4.99316 0.642891 4.7384C0.642657 4.75259 0.642657 4.76684 0.642657 4.78115C0.642657 6.4292 1.77417 7.804 3.27585 8.11643C3.00037 8.19418 2.71038 8.23572 2.41097 8.23572C2.19947 8.23572 1.99381 8.21443 1.79342 8.17471C2.21111 9.5261 3.42339 10.5095 4.85981 10.537C3.73638 11.4492 2.32096 11.993 0.783057 11.993C0.518117 11.993 0.256805 11.977 0 11.9455C1.45269 12.9106 3.17817 13.4737 5.03193 13.4737C11.0698 13.4737 14.3715 8.29066 14.3715 3.79581C14.3715 3.64833 14.3683 3.50163 14.362 3.35578C15.0033 2.87621 15.5599 2.27711 16 1.59499C15.4113 1.86552 14.7787 2.04836 14.1146 2.1306Z" fill="#5E6A74"/>
</svg>
